<svg xmlns="http://www.w3.org/2000/svg" width="32" height="32" version="1" id="camera"><path fill="#e64c65" fill-rule="evenodd" d="M32 16c0 8.824-7.176 16-16.053 16S0 24.824 0 16 7.123 0 16 0c8.877 0 16 7.176 16 16z" clip-rule="evenodd"></path><path fill="#cd244a" d="M18.926 31.7c.084-.017.176-.01.26-.026a16.04 16.04 0 0 0 8.117-4.365 16.1 16.1 0 0 0 3.437-5.086c.406-.957.72-1.962.934-3.002.047-.23.035-.478.072-.711L21.494 8.258a1.402 1.402 0 0 0-.998-.408h-2.135l-1.068-1.067c-.056-.056-.112-.113-.168-.113H14.82c-.056 0-.113.057-.17.113L13.64 7.85h-2.135c-.787 0-1.406.619-1.406 1.406v5.058c0 .394.155.744.408.997l4.314 4.314-2.418 5.256a.386.386 0 0 0-.006.223c.005.019.016.03.024.046.013.03.022.065.043.086l6.463 6.463z"></path><path fill="#fff" d="M14.82 6.67c-.057 0-.113.056-.169.112L13.64 7.85h-2.135c-.787 0-1.406.618-1.406 1.405v5.059c0 .787.619 1.405 1.406 1.405h3.147v.843c0 .618.394 1.18.956 1.349l-3.204 6.97c-.056.168 0 .337.112.393.113.056.337 0 .394-.113l2.866-6.182v6.07c0 .169.113.281.281.281.169 0 .281-.169.281-.28v-6.071l2.867 6.182c.056.113.225.17.393.113.169-.056.225-.225.169-.394l-3.204-6.913h1.518v.843c0 .169.112.281.28.281h1.125c.168 0 .28-.168.28-.28v-2.249c0-.169-.168-.281-.28-.281h-1.181c-.112.056-.224.169-.224.281v.843h-.956a1.38 1.38 0 0 0 .281-.843v-.843h3.091c.787 0 1.406-.618 1.406-1.405V9.255c0-.787-.619-1.405-1.406-1.405h-2.135l-1.068-1.068c-.056-.056-.113-.112-.169-.112H14.82zM11.39 8.974s.056 0 0 0h1.799c.168 0 .28.169.28.281v1.687c0 .168-.112.28-.28.28h-1.686c-.17 0-.281-.112-.281-.28V9.255c0-.168.056-.28.168-.28zm.394.562v1.124h1.124V9.536h-1.124zm7.081.562c.956 0 1.687.731 1.687 1.687 0 .955-.731 1.686-1.687 1.686-.955 0-1.686-.73-1.686-1.686-.056-.956.731-1.687 1.686-1.687zm0 .562c-.618 0-1.18.506-1.18 1.125 0 .618.506 1.124 1.18 1.124.619 0 1.125-.506 1.125-1.124 0-.619-.506-1.125-1.125-1.125z"></path></svg>