<svg id="visual" viewBox="0 0 2560 4000" width="2560" height="4000" xmlns="http://www.w3.org/2000/svg" xmlns:xlink="http://www.w3.org/1999/xlink" version="1.1"><path d="M2216 4000L2248.3 3963C2280.7 3926 2345.3 3852 2367.2 3778C2389 3704 2368 3630 2343.2 3555.8C2318.3 3481.7 2289.7 3407.3 2304 3333.2C2318.3 3259 2375.7 3185 2385.7 3111C2395.7 3037 2358.3 2963 2329.7 2889C2301 2815 2281 2741 2289.2 2666.8C2297.3 2592.7 2333.7 2518.3 2330.7 2444.2C2327.7 2370 2285.3 2296 2275.7 2222C2266 2148 2289 2074 2313.3 2000C2337.7 1926 2363.3 1852 2370 1778C2376.7 1704 2364.3 1630 2373 1555.8C2381.7 1481.7 2411.3 1407.3 2413.8 1333.2C2416.3 1259 2391.7 1185 2347.3 1111C2303 1037 2239 963 2208.3 889C2177.7 815 2180.3 741 2208 666.8C2235.7 592.7 2288.3 518.3 2308.5 444.2C2328.7 370 2316.3 296 2319.2 222C2322 148 2340 74 2349 37L2358 0" fill="none" stroke="#cbcfd7" stroke-width="51" stroke-linecap="round" stroke-linejoin="miter"></path></svg>