<svg width="100" height="90" viewBox="0 0 100 90" fill="none" xmlns="http://www.w3.org/2000/svg">
<g id="gallery" clip-path="url(#clip0_5_183)">
<g id="Layer 2">
<g id="Layer 1">
<path id="Path 3186" d="M51.8134 73.6652C48.9047 73.6165 46.1001 72.4046 43.8756 70.2351L29.2228 55.2914C28.1067 54.1019 26.6647 53.4045 25.1492 53.3212C23.6337 53.2379 22.1411 53.774 20.9326 54.8357L-1.58177e-05 72.5618V84.0993C-0.0679312 85.5806 0.373539 87.0327 1.22792 88.1384C2.08229 89.2441 3.2801 89.9133 4.55957 90H78.8601C80.3141 90.0815 81.7394 89.5113 82.8395 88.4079C83.9396 87.3044 84.6299 85.7527 84.7668 84.0753V53.8762L58.2798 71.5543C56.3365 72.9417 54.0967 73.6728 51.8134 73.6652Z" fill="#555555"/>
<path id="Ellipse 1114" d="M50.7357 43.4661C54.0094 43.4661 56.6632 40.3947 56.6632 36.6059C56.6632 32.8171 54.0094 29.7457 50.7357 29.7457C47.4621 29.7457 44.8083 32.8171 44.8083 36.6059C44.8083 40.3947 47.4621 43.4661 50.7357 43.4661Z" fill="#0078D4"/>
<path id="Path 3187" d="M98.7564 2.20916C98.3424 1.52422 97.8025 0.953901 97.1754 0.539171C96.5483 0.124441 95.8496 -0.124405 95.1295 -0.189494L21.8238 -10C20.4086 -10.2182 18.9764 -9.77742 17.8417 -8.77452C16.7071 -7.77162 15.9627 -6.28856 15.772 -4.651L14.5078 7.48621H78.7564C81.7082 7.56964 84.521 8.95423 86.6203 11.3571C88.7196 13.76 89.947 16.9999 90.0518 20.415V75.3682C90.0518 75.0564 91.2746 74.7445 91.8134 74.1209C92.361 73.6158 92.8022 72.9733 93.1038 72.242C93.4054 71.5107 93.5594 70.7096 93.5544 69.8993L99.9792 6.7906C100.054 5.97093 99.9838 5.14228 99.7736 4.3548C99.5635 3.56732 99.2174 2.83738 98.7564 2.20916Z" fill="#0078D4"/>
<path id="Path 3188" d="M32.7047 50.6141L47.5026 65.5577C48.5884 66.6328 49.9379 67.2873 51.3616 67.4293C52.7853 67.5713 54.2117 67.1936 55.4404 66.3492L84.7668 46.5843V20.415C84.6597 18.6358 83.9855 16.966 82.875 15.7295C81.7645 14.493 80.2967 13.7779 78.7565 13.7227H4.99481C4.28834 13.7744 3.59775 13.9878 2.96312 14.3507C2.32848 14.7137 1.76242 15.2188 1.29778 15.8369C0.833141 16.455 0.479165 17.1737 0.256385 17.9513C0.0336056 18.729 -0.0535426 19.5501 -4.3035e-06 20.367V64.7901L17.7824 49.9664C19.9552 48.0735 22.6252 47.1044 25.3429 47.2224C28.0607 47.3403 30.6604 48.5381 32.7047 50.6141ZM50.7357 23.5812C52.9688 23.5954 55.1481 24.3754 56.9983 25.8226C58.8485 27.2698 60.2865 29.3193 61.1307 31.712C61.9749 34.1047 62.1872 36.7334 61.741 39.2657C61.2948 41.7981 60.2101 44.1206 58.6238 45.9397C57.0375 47.7588 55.021 48.993 52.8289 49.4861C50.6368 49.9793 48.3676 49.7094 46.308 48.7105C44.2484 47.7117 42.4909 46.0287 41.2574 43.8742C40.024 41.7197 39.3701 39.1904 39.3782 36.6059C39.3837 34.8871 39.6819 33.1865 40.2558 31.6013C40.8298 30.0161 41.6682 28.5774 42.7232 27.3676C43.7781 26.1579 45.0288 25.2007 46.4037 24.551C47.7786 23.9013 49.2507 23.5717 50.7357 23.5812Z" fill="#555555"/>
</g>
</g>
</g>
<defs>
<clipPath id="clip0_5_183">
<rect width="100" height="100" fill="white" transform="translate(0 -10)"/>
</clipPath>
</defs>
</svg>
