<svg id="visual" viewBox="0 0 2560 4000" width="2560" height="4000" xmlns="http://www.w3.org/2000/svg" xmlns:xlink="http://www.w3.org/1999/xlink" version="1.1"><path d="M0 361L38.8 407.7C77.7 454.3 155.3 547.7 232.8 534.3C310.3 521 387.7 401 465.2 414.3C542.7 427.7 620.3 574.3 698 607.7C775.7 641 853.3 561 931 541C1008.7 521 1086.3 561 1163.8 574.3C1241.3 587.7 1318.7 574.3 1396.2 527.7C1473.7 481 1551.3 401 1629 387.7C1706.7 374.3 1784.3 427.7 1862 427.7C1939.7 427.7 2017.3 374.3 2094.8 394.3C2172.3 414.3 2249.7 507.7 2327.2 521C2404.7 534.3 2482.3 467.7 2521.2 434.3L2560 401L2560 0L2521.2 0C2482.3 0 2404.7 0 2327.2 0C2249.7 0 2172.3 0 2094.8 0C2017.3 0 1939.7 0 1862 0C1784.3 0 1706.7 0 1629 0C1551.3 0 1473.7 0 1396.2 0C1318.7 0 1241.3 0 1163.8 0C1086.3 0 1008.7 0 931 0C853.3 0 775.7 0 698 0C620.3 0 542.7 0 465.2 0C387.7 0 310.3 0 232.8 0C155.3 0 77.7 0 38.8 0L0 0Z" fill="#6198ff"></path><path d="M0 961L38.8 974.3C77.7 987.7 155.3 1014.3 232.8 994.3C310.3 974.3 387.7 907.7 465.2 947.7C542.7 987.7 620.3 1134.3 698 1147.7C775.7 1161 853.3 1041 931 967.7C1008.7 894.3 1086.3 867.7 1163.8 901C1241.3 934.3 1318.7 1027.7 1396.2 1041C1473.7 1054.3 1551.3 987.7 1629 961C1706.7 934.3 1784.3 947.7 1862 927.7C1939.7 907.7 2017.3 854.3 2094.8 907.7C2172.3 961 2249.7 1121 2327.2 1094.3C2404.7 1067.7 2482.3 854.3 2521.2 747.7L2560 641L2560 399L2521.2 432.3C2482.3 465.7 2404.7 532.3 2327.2 519C2249.7 505.7 2172.3 412.3 2094.8 392.3C2017.3 372.3 1939.7 425.7 1862 425.7C1784.3 425.7 1706.7 372.3 1629 385.7C1551.3 399 1473.7 479 1396.2 525.7C1318.7 572.3 1241.3 585.7 1163.8 572.3C1086.3 559 1008.7 519 931 539C853.3 559 775.7 639 698 605.7C620.3 572.3 542.7 425.7 465.2 412.3C387.7 399 310.3 519 232.8 532.3C155.3 545.7 77.7 452.3 38.8 405.7L0 359Z" fill="#3c80ff"></path><path d="M0 2601L38.8 2554.3C77.7 2507.7 155.3 2414.3 232.8 2307.7C310.3 2201 387.7 2081 465.2 2034.3C542.7 1987.7 620.3 2014.3 698 2001C775.7 1987.7 853.3 1934.3 931 2034.3C1008.7 2134.3 1086.3 2387.7 1163.8 2401C1241.3 2414.3 1318.7 2187.7 1396.2 2007.7C1473.7 1827.7 1551.3 1694.3 1629 1661C1706.7 1627.7 1784.3 1694.3 1862 1694.3C1939.7 1694.3 2017.3 1627.7 2094.8 1734.3C2172.3 1841 2249.7 2121 2327.2 2121C2404.7 2121 2482.3 1841 2521.2 1701L2560 1561L2560 639L2521.2 745.7C2482.3 852.3 2404.7 1065.7 2327.2 1092.3C2249.7 1119 2172.3 959 2094.8 905.7C2017.3 852.3 1939.7 905.7 1862 925.7C1784.3 945.7 1706.7 932.3 1629 959C1551.3 985.7 1473.7 1052.3 1396.2 1039C1318.7 1025.7 1241.3 932.3 1163.8 899C1086.3 865.7 1008.7 892.3 931 965.7C853.3 1039 775.7 1159 698 1145.7C620.3 1132.3 542.7 985.7 465.2 945.7C387.7 905.7 310.3 972.3 232.8 992.3C155.3 1012.3 77.7 985.7 38.8 972.3L0 959Z" fill="#0066ff"></path><path d="M0 3121L38.8 3114.3C77.7 3107.7 155.3 3094.3 232.8 3021C310.3 2947.7 387.7 2814.3 465.2 2727.7C542.7 2641 620.3 2601 698 2581C775.7 2561 853.3 2561 931 2647.7C1008.7 2734.3 1086.3 2907.7 1163.8 2961C1241.3 3014.3 1318.7 2947.7 1396.2 2834.3C1473.7 2721 1551.3 2561 1629 2481C1706.7 2401 1784.3 2401 1862 2414.3C1939.7 2427.7 2017.3 2454.3 2094.8 2521C2172.3 2587.7 2249.7 2694.3 2327.2 2641C2404.7 2587.7 2482.3 2374.3 2521.2 2267.7L2560 2161L2560 1559L2521.2 1699C2482.3 1839 2404.7 2119 2327.2 2119C2249.7 2119 2172.3 1839 2094.8 1732.3C2017.3 1625.7 1939.7 1692.3 1862 1692.3C1784.3 1692.3 1706.7 1625.7 1629 1659C1551.3 1692.3 1473.7 1825.7 1396.2 2005.7C1318.7 2185.7 1241.3 2412.3 1163.8 2399C1086.3 2385.7 1008.7 2132.3 931 2032.3C853.3 1932.3 775.7 1985.7 698 1999C620.3 2012.3 542.7 1985.7 465.2 2032.3C387.7 2079 310.3 2199 232.8 2305.7C155.3 2412.3 77.7 2505.7 38.8 2552.3L0 2599Z" fill="#0059dd"></path><path d="M0 4001L38.8 4001C77.7 4001 155.3 4001 232.8 4001C310.3 4001 387.7 4001 465.2 4001C542.7 4001 620.3 4001 698 4001C775.7 4001 853.3 4001 931 4001C1008.7 4001 1086.3 4001 1163.8 4001C1241.3 4001 1318.7 4001 1396.2 4001C1473.7 4001 1551.3 4001 1629 4001C1706.7 4001 1784.3 4001 1862 4001C1939.7 4001 2017.3 4001 2094.8 4001C2172.3 4001 2249.7 4001 2327.2 4001C2404.7 4001 2482.3 4001 2521.2 4001L2560 4001L2560 2159L2521.2 2265.7C2482.3 2372.3 2404.7 2585.7 2327.2 2639C2249.7 2692.3 2172.3 2585.7 2094.8 2519C2017.3 2452.3 1939.7 2425.7 1862 2412.3C1784.3 2399 1706.7 2399 1629 2479C1551.3 2559 1473.7 2719 1396.2 2832.3C1318.7 2945.7 1241.3 3012.3 1163.8 2959C1086.3 2905.7 1008.7 2732.3 931 2645.7C853.3 2559 775.7 2559 698 2579C620.3 2599 542.7 2639 465.2 2725.7C387.7 2812.3 310.3 2945.7 232.8 3019C155.3 3092.3 77.7 3105.7 38.8 3112.3L0 3119Z" fill="#004cbb"></path></svg>